<mxfile host="app.diagrams.net" agent="Mozilla/5.0 (Windows NT 10.0; Win64; x64; rv:137.0) Gecko/20100101 Firefox/137.0" version="26.2.8">
  <diagram id="C5RBs43oDa-KdzZeNtuy" name="Page-1">
    <mxGraphModel dx="1163" dy="672" grid="1" gridSize="10" guides="1" tooltips="1" connect="1" arrows="1" fold="1" page="1" pageScale="1" pageWidth="827" pageHeight="1169" math="0" shadow="0">
      <root>
        <mxCell id="WIyWlLk6GJQsqaUBKTNV-0" />
        <mxCell id="WIyWlLk6GJQsqaUBKTNV-1" parent="WIyWlLk6GJQsqaUBKTNV-0" />
        <mxCell id="tzqLjO-PKjJ5PcTdrK1e-5" value="" style="edgeStyle=orthogonalEdgeStyle;rounded=0;orthogonalLoop=1;jettySize=auto;html=1;" edge="1" parent="WIyWlLk6GJQsqaUBKTNV-1" source="tzqLjO-PKjJ5PcTdrK1e-0" target="tzqLjO-PKjJ5PcTdrK1e-1">
          <mxGeometry relative="1" as="geometry" />
        </mxCell>
        <mxCell id="tzqLjO-PKjJ5PcTdrK1e-0" value="Старт" style="ellipse;whiteSpace=wrap;html=1;" vertex="1" parent="WIyWlLk6GJQsqaUBKTNV-1">
          <mxGeometry x="440" y="50" width="120" height="80" as="geometry" />
        </mxCell>
        <mxCell id="tzqLjO-PKjJ5PcTdrK1e-7" value="" style="edgeStyle=orthogonalEdgeStyle;rounded=0;orthogonalLoop=1;jettySize=auto;html=1;" edge="1" parent="WIyWlLk6GJQsqaUBKTNV-1" source="tzqLjO-PKjJ5PcTdrK1e-1" target="tzqLjO-PKjJ5PcTdrK1e-2">
          <mxGeometry relative="1" as="geometry" />
        </mxCell>
        <mxCell id="tzqLjO-PKjJ5PcTdrK1e-1" value="Ввод C и D" style="shape=parallelogram;perimeter=parallelogramPerimeter;whiteSpace=wrap;html=1;fixedSize=1;" vertex="1" parent="WIyWlLk6GJQsqaUBKTNV-1">
          <mxGeometry x="440" y="190" width="120" height="60" as="geometry" />
        </mxCell>
        <mxCell id="tzqLjO-PKjJ5PcTdrK1e-8" value="" style="edgeStyle=orthogonalEdgeStyle;rounded=0;orthogonalLoop=1;jettySize=auto;html=1;" edge="1" parent="WIyWlLk6GJQsqaUBKTNV-1" source="tzqLjO-PKjJ5PcTdrK1e-2" target="tzqLjO-PKjJ5PcTdrK1e-3">
          <mxGeometry relative="1" as="geometry" />
        </mxCell>
        <mxCell id="tzqLjO-PKjJ5PcTdrK1e-2" value="Корректировка границ" style="rounded=0;whiteSpace=wrap;html=1;" vertex="1" parent="WIyWlLk6GJQsqaUBKTNV-1">
          <mxGeometry x="440" y="310" width="120" height="60" as="geometry" />
        </mxCell>
        <mxCell id="tzqLjO-PKjJ5PcTdrK1e-10" value="Да" style="edgeStyle=orthogonalEdgeStyle;rounded=0;orthogonalLoop=1;jettySize=auto;html=1;entryX=0.5;entryY=0;entryDx=0;entryDy=0;" edge="1" parent="WIyWlLk6GJQsqaUBKTNV-1" source="tzqLjO-PKjJ5PcTdrK1e-3" target="tzqLjO-PKjJ5PcTdrK1e-21">
          <mxGeometry relative="1" as="geometry">
            <mxPoint x="375" y="630" as="targetPoint" />
          </mxGeometry>
        </mxCell>
        <mxCell id="tzqLjO-PKjJ5PcTdrK1e-3" value="num &amp;lt;= end?" style="rhombus;whiteSpace=wrap;html=1;" vertex="1" parent="WIyWlLk6GJQsqaUBKTNV-1">
          <mxGeometry x="427.5" y="410" width="145" height="100" as="geometry" />
        </mxCell>
        <mxCell id="tzqLjO-PKjJ5PcTdrK1e-12" value="Да" style="edgeStyle=orthogonalEdgeStyle;rounded=0;orthogonalLoop=1;jettySize=auto;html=1;exitX=0.5;exitY=1;exitDx=0;exitDy=0;" edge="1" parent="WIyWlLk6GJQsqaUBKTNV-1" source="tzqLjO-PKjJ5PcTdrK1e-21" target="tzqLjO-PKjJ5PcTdrK1e-11">
          <mxGeometry relative="1" as="geometry">
            <mxPoint x="375" y="690" as="sourcePoint" />
          </mxGeometry>
        </mxCell>
        <mxCell id="tzqLjO-PKjJ5PcTdrK1e-11" value="Вывод" style="shape=parallelogram;perimeter=parallelogramPerimeter;whiteSpace=wrap;html=1;fixedSize=1;" vertex="1" parent="WIyWlLk6GJQsqaUBKTNV-1">
          <mxGeometry x="315" y="750" width="120" height="60" as="geometry" />
        </mxCell>
        <mxCell id="tzqLjO-PKjJ5PcTdrK1e-13" value="num = num + 1" style="rounded=0;whiteSpace=wrap;html=1;" vertex="1" parent="WIyWlLk6GJQsqaUBKTNV-1">
          <mxGeometry x="90" y="620" width="120" height="60" as="geometry" />
        </mxCell>
        <mxCell id="tzqLjO-PKjJ5PcTdrK1e-14" value="" style="endArrow=classic;html=1;rounded=0;exitX=0.5;exitY=0;exitDx=0;exitDy=0;entryX=0;entryY=0.5;entryDx=0;entryDy=0;" edge="1" parent="WIyWlLk6GJQsqaUBKTNV-1" source="tzqLjO-PKjJ5PcTdrK1e-13" target="tzqLjO-PKjJ5PcTdrK1e-3">
          <mxGeometry width="50" height="50" relative="1" as="geometry">
            <mxPoint x="390" y="640" as="sourcePoint" />
            <mxPoint x="440" y="590" as="targetPoint" />
            <Array as="points" />
          </mxGeometry>
        </mxCell>
        <mxCell id="tzqLjO-PKjJ5PcTdrK1e-15" value="Конец" style="ellipse;whiteSpace=wrap;html=1;" vertex="1" parent="WIyWlLk6GJQsqaUBKTNV-1">
          <mxGeometry x="410" y="1000" width="120" height="80" as="geometry" />
        </mxCell>
        <mxCell id="tzqLjO-PKjJ5PcTdrK1e-16" value="Вывод сообщения:&quot;Необходимых чисел нет&quot;" style="rounded=0;whiteSpace=wrap;html=1;" vertex="1" parent="WIyWlLk6GJQsqaUBKTNV-1">
          <mxGeometry x="610" y="930" width="170" height="60" as="geometry" />
        </mxCell>
        <mxCell id="tzqLjO-PKjJ5PcTdrK1e-18" value="Нет" style="edgeStyle=orthogonalEdgeStyle;rounded=0;orthogonalLoop=1;jettySize=auto;html=1;" edge="1" parent="WIyWlLk6GJQsqaUBKTNV-1" source="tzqLjO-PKjJ5PcTdrK1e-17" target="tzqLjO-PKjJ5PcTdrK1e-15">
          <mxGeometry relative="1" as="geometry" />
        </mxCell>
        <mxCell id="tzqLjO-PKjJ5PcTdrK1e-19" value="Да" style="edgeStyle=orthogonalEdgeStyle;rounded=0;orthogonalLoop=1;jettySize=auto;html=1;" edge="1" parent="WIyWlLk6GJQsqaUBKTNV-1" source="tzqLjO-PKjJ5PcTdrK1e-17" target="tzqLjO-PKjJ5PcTdrK1e-16">
          <mxGeometry relative="1" as="geometry" />
        </mxCell>
        <mxCell id="tzqLjO-PKjJ5PcTdrK1e-17" value="found == false?" style="rhombus;whiteSpace=wrap;html=1;" vertex="1" parent="WIyWlLk6GJQsqaUBKTNV-1">
          <mxGeometry x="510" y="700" width="120" height="80" as="geometry" />
        </mxCell>
        <mxCell id="tzqLjO-PKjJ5PcTdrK1e-20" value="Нет" style="endArrow=classic;html=1;rounded=0;exitX=1;exitY=0.5;exitDx=0;exitDy=0;entryX=0.5;entryY=0;entryDx=0;entryDy=0;" edge="1" parent="WIyWlLk6GJQsqaUBKTNV-1" source="tzqLjO-PKjJ5PcTdrK1e-3" target="tzqLjO-PKjJ5PcTdrK1e-17">
          <mxGeometry width="50" height="50" relative="1" as="geometry">
            <mxPoint x="390" y="680" as="sourcePoint" />
            <mxPoint x="640" y="760" as="targetPoint" />
          </mxGeometry>
        </mxCell>
        <mxCell id="tzqLjO-PKjJ5PcTdrK1e-22" value="Нет" style="edgeStyle=orthogonalEdgeStyle;rounded=0;orthogonalLoop=1;jettySize=auto;html=1;" edge="1" parent="WIyWlLk6GJQsqaUBKTNV-1" source="tzqLjO-PKjJ5PcTdrK1e-21" target="tzqLjO-PKjJ5PcTdrK1e-13">
          <mxGeometry relative="1" as="geometry" />
        </mxCell>
        <mxCell id="tzqLjO-PKjJ5PcTdrK1e-21" value="&#xa;sumHigh == sumLow?&#xa;&#xa;" style="rhombus;whiteSpace=wrap;html=1;" vertex="1" parent="WIyWlLk6GJQsqaUBKTNV-1">
          <mxGeometry x="280" y="610" width="190" height="80" as="geometry" />
        </mxCell>
        <mxCell id="tzqLjO-PKjJ5PcTdrK1e-23" value="" style="endArrow=classic;html=1;rounded=0;exitX=0;exitY=0.5;exitDx=0;exitDy=0;entryX=0.5;entryY=1;entryDx=0;entryDy=0;" edge="1" parent="WIyWlLk6GJQsqaUBKTNV-1" source="tzqLjO-PKjJ5PcTdrK1e-11" target="tzqLjO-PKjJ5PcTdrK1e-13">
          <mxGeometry width="50" height="50" relative="1" as="geometry">
            <mxPoint x="390" y="640" as="sourcePoint" />
            <mxPoint x="440" y="590" as="targetPoint" />
          </mxGeometry>
        </mxCell>
      </root>
    </mxGraphModel>
  </diagram>
</mxfile>
